# xmcd
#
# Track frame offsets:
#	150
#	14168
#	28417
#	41689
#	54372
#	66336
#	78195
#	92134
#	109498
#	132841
#	145675
#	158769
#	169915
#	182885
#	196798
#	212653
#	231715
#	243578
#	266381
#	309126
#
# Disc length: 4289
#
# Revision: 2
# Processed by: cddbd v1.5.1PL0 Copyright (c) Steve Scherf et al.
# Submitted via: dBpowerAMP V4.0
# Normalized: r0:TSWAP
#
DISCID=2010bf14
DTITLE=Various Artist - Blues Masters - Disc 2
DYEAR=2001
DGENRE=Blues
TTITLE0=Eric Clapton and Jimmy Page - Draggin' My Tail
TTITLE1=Pine Top Smith - I'm Sober Now
TTITLE2=John Lee Hooker - One Bourbon, One Scotch, One Beer
TTITLE3=John Mayall and The Bluesbreakers - On Top Of The World
TTITLE4=Jeff Beck and The All Stars - Steelin'
TTITLE5=Robert Johnson - Hell Hound On My Trail
TTITLE6=Muddy Waters - I Be's Troubled
TTITLE7=Jimmy Reed - Cry Before I Go
TTITLE8=Buddy Guy and Junior Wells - In My Younger Days (Live)
TTITLE9=Crippled Clarence Lofton - Pine Top's Boogie Woogie
TTITLE10=Washboard Sam - She Fooled Me
TTITLE11=Blind Boy Fuller - She's A Trucking Little Baby
TTITLE12=Bessie Smith - Preachin' The Blues
TTITLE13=Lightin' Hopkins - War Is Starting Again
TTITLE14=Tampa Red - My Daddy Rocks Me
TTITLE15=Sunnyland Slim - Soft And Mellow Stella
TTITLE16=Howlin' Wolf - Baby Ride With Me
TTITLE17=B B King - The Thrill Is Gone (Live)
TTITLE18=Albert King - Stormy Monday Blues
TTITLE19=Jimmy Reed - Big Boss Man
EXTD=
EXTT0=
EXTT1=
EXTT2=
EXTT3=
EXTT4=
EXTT5=
EXTT6=
EXTT7=
EXTT8=
EXTT9=
EXTT10=
EXTT11=
EXTT12=
EXTT13=
EXTT14=
EXTT15=
EXTT16=
EXTT17=
EXTT18=
EXTT19=
PLAYORDER=
